<svg xmlns="http://www.w3.org/2000/svg" viewBox="0 0 362.53 289.34"><defs><style>.cls-1{font-size:31.51px;font-family:Raleway-Black, Raleway;font-weight:800;letter-spacing:0.12em;}.cls-1,.cls-4{fill:#77b426;}.cls-2{letter-spacing:0.07em;}.cls-3{letter-spacing:0.12em;}.cls-4{font-size:71px;font-family:Mistral;}.cls-5{font-size:21.3px;fill:#01431b;font-family:Raleway-Regular, Raleway;letter-spacing:0.15em;}.cls-6{letter-spacing:0.08em;}.cls-7{letter-spacing:0.15em;}.cls-8{letter-spacing:0.15em;}.cls-9{letter-spacing:0.12em;}.cls-10{letter-spacing:0.15em;}.cls-11{letter-spacing:0.15em;}.cls-12{letter-spacing:0.15em;}.cls-13{fill:#89b462;}.cls-14{fill:#f00234;}.cls-15{fill:#7daf2c;}.cls-16{fill:#cde353;}.cls-17{fill:#496b08;}.cls-18{fill:#c9da66;}</style></defs><g id="Layer_2" data-name="Layer 2"><g id="OBJECTS"><text class="cls-1" transform="translate(118.06 257.42)">SHE<tspan class="cls-2" x="73.33" y="0">T</tspan><tspan class="cls-3" x="95.23" y="0">-</tspan></text><text class="cls-4" transform="translate(233.66 260.71)">e</text><text class="cls-5" transform="translate(0 284.59)">N<tspan class="cls-6" x="19.63" y="0">A</tspan><tspan class="cls-7" x="35.78" y="0">TU</tspan><tspan class="cls-8" x="71.23" y="0">R</tspan><tspan x="88.27" y="0">A</tspan><tspan class="cls-9" x="105.86" y="0">L</tspan><tspan class="cls-10" x="120.85" y="0" xml:space="preserve"> FR</tspan><tspan class="cls-11" x="162.31" y="0">E</tspan><tspan class="cls-10" x="178.39" y="0">SH PRODU</tspan><tspan class="cls-12" x="312.46" y="0">C</tspan><tspan x="330.23" y="0">TS</tspan></text><circle class="cls-13" cx="232.34" cy="146.62" r="18.11" transform="translate(-20.58 39.34) rotate(-9.27)"/><path class="cls-14" d="M234.27,53.83c-34.56-39.4-87.38,4-25.35,74.68C301.2,110.15,285.68,43.6,234.27,53.83Z"/><path class="cls-15" d="M235.36,50.61S249,15.89,232.62,0L228.7,3.36s13.3,13.75,4.52,46.53Z"/><path class="cls-15" d="M225,24.66a110.12,110.12,0,0,0-16.27-4.33,111.31,111.31,0,0,1,16.78,2.54c2.2.49,4.38,1.08,6.56,1.73-3.5-4.41-13.15-13.43-29.05-5,0,0,10.5,19.36,29.28,7.89C230,26.48,227.52,25.51,225,24.66Z"/><path class="cls-15" d="M241.3,40.8a53,53,0,0,1,6.17-2.49,74.47,74.47,0,0,1,11.67-3A93.65,93.65,0,0,1,271,34.08a85.74,85.74,0,0,1,11.89.28,84.74,84.74,0,0,0-11.82.65,91.77,91.77,0,0,0-11.57,2.16,73.93,73.93,0,0,0-11.07,3.75,52,52,0,0,0-6.36,3.23c24.8,14.34,44.51-11,44.51-11C258.86,19.89,245.26,35,241.3,40.8Z"/><path class="cls-16" d="M160.86,122.59c23.63-26.95,59.76,2.71,17.33,51.08C115.08,161.11,125.7,115.6,160.86,122.59Z"/><path class="cls-15" d="M160.11,120.39S150.77,96.64,162,85.78l2.67,2.3s-9.09,9.4-3.09,31.82Z"/><path class="cls-15" d="M167.17,102.64a75,75,0,0,1,11.13-3,77.24,77.24,0,0,0-11.48,1.73c-1.51.34-3,.75-4.48,1.19,2.38-3,9-9.18,19.86-3.4,0,0-7.18,13.24-20,5.4C163.81,103.88,165.47,103.22,167.17,102.64Z"/><path class="cls-15" d="M156.05,113.68a36.47,36.47,0,0,0-4.22-1.7,50.58,50.58,0,0,0-8-2,65.57,65.57,0,0,0-8.13-.87,59.74,59.74,0,0,0-8.14.19,59,59,0,0,1,8.09.45,61.93,61.93,0,0,1,7.91,1.48,50.29,50.29,0,0,1,7.57,2.56,35.51,35.51,0,0,1,4.35,2.21c-17,9.81-30.44-7.53-30.44-7.53C144,99.38,153.34,109.71,156.05,113.68Z"/><path class="cls-17" d="M280.48,83.43a6.24,6.24,0,0,0-5-2.36L124.77,84.83l3-19.37a6.23,6.23,0,0,0-6.31-7.17L82,59.28a6.22,6.22,0,1,0,.31,12.44l32-.8-12.45,81.16h0l-4.18,27.58a6.22,6.22,0,0,0,5.08,7.06,6.31,6.31,0,0,0,1.23.09l12.72-.32a22.16,22.16,0,0,0,12.45,36.88,22.66,22.66,0,0,0,4.38.33A22.22,22.22,0,0,0,155.16,201h0a22.11,22.11,0,0,0-6.67-15.28L198,184.47a22.17,22.17,0,0,0,12.4,36.88,23.14,23.14,0,0,0,4.42.33,22.17,22.17,0,0,0,15-38l13.17-.33a6.22,6.22,0,1,0-.31-12.44L111.1,174.2l2.28-15.08,146-3.65a6.22,6.22,0,0,0,5.86-4.63l16.35-62A6.21,6.21,0,0,0,280.48,83.43ZM214.05,189.78a9.6,9.6,0,0,1,6.95,2.68,9.61,9.61,0,0,1,3,6.8h0a9.73,9.73,0,1,1-19.45.48A9.75,9.75,0,0,1,214.05,189.78Zm-88.11,5.05a9.7,9.7,0,0,1,6.81-3,11.06,11.06,0,0,1,1.92.14,9.74,9.74,0,0,1,8,9.34h0a9.73,9.73,0,1,1-16.77-6.47Zm128.49-51.69-139.14,3.48,7.56-49.29,144.62-3.61Z"/><path class="cls-18" d="M165.59,74.23c-3.6-4.44-7.42-8.77-11.4-13S146.11,52.94,141.8,49c4.89,3.17,9.63,6.59,14.28,10.15s9.18,7.28,13.58,11.2q2.64,2.38,5.2,4.88C172.67,39.78,133,41,133,41c2.91,31.39,25,39.65,35.9,40.38.79,0,1.51.06,2.17,0C169.3,79,167.49,76.59,165.59,74.23Z"/></g></g></svg>