<svg xmlns="http://www.w3.org/2000/svg" viewBox="0 0 210.71 283.25"><defs><style>.cls-1{font-size:31.51px;font-family:Raleway-Black, Raleway;font-weight:800;letter-spacing:0.12em;}.cls-1,.cls-4{fill:#77b426;}.cls-2{letter-spacing:0.07em;}.cls-3{letter-spacing:0.12em;}.cls-4{font-size:71px;font-family:Mistral;}.cls-5{fill:#89b462;}.cls-6{fill:#f00234;}.cls-7{fill:#7daf2c;}.cls-8{fill:#cde353;}.cls-9{fill:#496b08;}.cls-10{fill:#c9da66;}</style></defs><g id="Layer_2" data-name="Layer 2"><g id="OBJECTS"><text class="cls-1" transform="translate(42.15 257.42)">SHE<tspan class="cls-2" x="73.33" y="0">T</tspan><tspan class="cls-3" x="95.23" y="0">-</tspan></text><text class="cls-4" transform="translate(157.75 260.71)">e</text><circle class="cls-5" cx="156.43" cy="146.62" r="18.11" transform="translate(-21.58 27.11) rotate(-9.27)"/><path class="cls-6" d="M158.36,53.83c-34.57-39.4-87.39,4-25.35,74.68C225.28,110.15,209.77,43.6,158.36,53.83Z"/><path class="cls-7" d="M159.45,50.61S173.11,15.89,156.7,0l-3.91,3.36s13.3,13.75,4.52,46.53Z"/><path class="cls-7" d="M149.13,24.66a110.45,110.45,0,0,0-16.27-4.33,111.31,111.31,0,0,1,16.78,2.54c2.2.49,4.38,1.08,6.55,1.73-3.49-4.41-13.14-13.43-29-5,0,0,10.49,19.36,29.28,7.89C154,26.48,151.61,25.51,149.13,24.66Z"/><path class="cls-7" d="M165.39,40.8a53.6,53.6,0,0,1,6.16-2.49,74.59,74.59,0,0,1,11.68-3,93.65,93.65,0,0,1,11.9-1.27,85.74,85.74,0,0,1,11.89.28A84.74,84.74,0,0,0,195.2,35a92.26,92.26,0,0,0-11.58,2.16,74.2,74.2,0,0,0-11.06,3.75,52,52,0,0,0-6.36,3.23c24.79,14.34,44.51-11,44.51-11C183,19.89,169.35,35,165.39,40.8Z"/><path class="cls-8" d="M84.94,122.59c23.64-26.95,59.77,2.71,17.34,51.08C39.17,161.11,49.78,115.6,84.94,122.59Z"/><path class="cls-7" d="M84.2,120.39s-9.35-23.75,1.88-34.61l2.67,2.3s-9.1,9.4-3.09,31.82Z"/><path class="cls-7" d="M91.26,102.64a75.24,75.24,0,0,1,11.12-3,77.11,77.11,0,0,0-11.47,1.73c-1.51.34-3,.75-4.49,1.19,2.39-3,9-9.18,19.87-3.4,0,0-7.18,13.24-20,5.4C87.9,103.88,89.56,103.22,91.26,102.64Z"/><path class="cls-7" d="M80.14,113.68a36.47,36.47,0,0,0-4.22-1.7,50.86,50.86,0,0,0-8-2,65.57,65.57,0,0,0-8.13-.87,59.74,59.74,0,0,0-8.14.19,59,59,0,0,1,8.09.45,61.93,61.93,0,0,1,7.91,1.48,50.29,50.29,0,0,1,7.57,2.56A36.24,36.24,0,0,1,79.58,116c-17,9.81-30.44-7.53-30.44-7.53C68.13,99.38,77.43,109.71,80.14,113.68Z"/><path class="cls-9" d="M204.57,83.43a6.26,6.26,0,0,0-5-2.36L48.86,84.83l3-19.37a6.23,6.23,0,0,0-6.31-7.17l-39.45,1a6.22,6.22,0,1,0,.31,12.44l32-.8L26,152.08h0l-4.17,27.58a6.22,6.22,0,0,0,6.31,7.15l12.72-.32a22,22,0,0,0-5.89,15.59,22.21,22.21,0,0,0,18.34,21.29,22.66,22.66,0,0,0,4.38.33A22.22,22.22,0,0,0,79.25,201h0a22.07,22.07,0,0,0-6.68-15.28l49.55-1.24a22.17,22.17,0,0,0,12.39,36.88,23.3,23.3,0,0,0,4.43.33,22.17,22.17,0,0,0,15-38l13.17-.33a6.22,6.22,0,1,0-.31-12.44L35.19,174.2l2.28-15.08,146-3.65a6.23,6.23,0,0,0,5.86-4.63l16.35-62A6.21,6.21,0,0,0,204.57,83.43ZM138.14,189.78a9.73,9.73,0,0,1,10,9.48h0a9.73,9.73,0,1,1-19.45.48A9.75,9.75,0,0,1,138.14,189.78ZM50,194.83a9.7,9.7,0,0,1,6.8-3,11.1,11.1,0,0,1,1.93.14,9.74,9.74,0,0,1,8,9.34h0A9.73,9.73,0,1,1,50,194.83Zm128.49-51.69L39.38,146.62l7.56-49.29,144.62-3.61Z"/><path class="cls-10" d="M89.68,74.23c-3.6-4.44-7.43-8.77-11.4-13S70.2,52.94,65.89,49c4.89,3.17,9.63,6.59,14.27,10.15s9.19,7.28,13.59,11.2q2.64,2.38,5.2,4.88C96.76,39.78,57.08,41,57.08,41,60,72.38,82.06,80.64,93,81.37c.79,0,1.51.06,2.17,0Q92.51,77.78,89.68,74.23Z"/></g></g></svg>